<!-- created by svgstack.com | Attribution is required. --><svg width="201" height="201" viewBox="0 0 201 201" fill="none" xmlns="http://www.w3.org/2000/svg"><path d="M100.28 0.371582H99.8248C44.7221 0.371582 0.0526123 45.0543 0.0526123 100.173V100.629C0.0526123 155.748 44.7221 200.431 99.8248 200.431H100.28C155.383 200.431 200.053 155.748 200.053 100.629V100.173C200.053 45.0543 155.383 0.371582 100.28 0.371582Z" fill="#A544FF"/><path d="M68.8751 48.2993L46.5999 70.5811V150.785H73.3245V173.067L95.5997 150.785H113.418L153.512 110.68V48.2993H68.8751ZM144.599 106.222L126.781 124.046H108.962L93.3714 139.641V124.046H73.3245V57.2078H144.599V106.222Z" fill="white"/><path d="M131.23 72.8101H122.324V99.5425H131.23V72.8101Z" fill="white"/><path d="M106.734 72.8101H97.8279V99.5425H106.734V72.8101Z" fill="white"/></svg> 