<!-- created by svgstack.com | Attribution is required. --><svg width="201" height="201" viewBox="0 0 201 201" fill="none" xmlns="http://www.w3.org/2000/svg"><path d="M100.531 0.371582H100.075C44.9725 0.371582 0.302917 45.0543 0.302917 100.173V100.629C0.302917 155.748 44.9725 200.43 100.075 200.43H100.531C155.633 200.43 200.303 155.748 200.303 100.629V100.173C200.303 45.0543 155.633 0.371582 100.531 0.371582Z" fill="#FF0000"/><path fill-rule="evenodd" clip-rule="evenodd" d="M91.1762 127.753C91.0571 128.167 90.945 128.517 90.8539 128.868C85.5637 149.6 84.9751 154.205 79.5377 163.836C76.9451 168.413 74.0232 172.751 70.793 176.901C70.4286 177.37 70.0852 177.973 69.3565 177.826C68.5577 177.658 68.4947 176.936 68.4106 176.298C67.5417 169.997 67.0582 163.682 67.2685 157.317C67.5417 149.033 68.5648 146.187 79.2434 101.273C79.3975 100.586 79.2223 100.019 78.9981 99.4018C76.4406 92.5049 75.9361 85.5029 78.1713 78.4097C83.0061 63.088 100.369 61.9175 103.403 74.5548C105.274 82.3698 100.327 92.603 96.5296 107.729C93.3834 120.205 108.07 129.078 120.62 119.966C132.195 111.569 136.687 91.4395 135.832 77.1691C134.15 48.7195 102.962 42.5725 83.1813 51.7333C60.4997 62.2259 55.3426 90.3461 65.5868 103.201C66.8831 104.834 69.3285 105.836 68.9011 107.49C68.2424 110.063 67.6608 112.656 66.9461 115.214C66.4136 117.121 63.3796 117.815 61.4527 117.03C57.6759 115.502 54.5298 113.097 51.9792 109.929C43.2836 99.1565 40.7961 77.849 52.2946 59.8077C65.0332 39.825 88.7308 31.7366 110.368 34.1897C136.21 37.1265 152.543 54.7893 155.598 74.8281C156.993 83.9539 155.991 106.46 143.182 122.37C128.446 140.65 104.56 141.862 93.5376 130.641C92.6897 129.779 92.0101 128.777 91.1762 127.746V127.753Z" fill="white"/></svg> 