<!-- created by svgstack.com | Attribution is required. --><svg width="201" height="201" viewBox="0 0 201 201" fill="none" xmlns="http://www.w3.org/2000/svg"><path d="M100.901 200.345C156.13 200.345 200.901 155.56 200.901 100.315C200.901 45.0704 156.13 0.285645 100.901 0.285645C45.6728 0.285645 0.901245 45.0704 0.901245 100.315C0.901245 155.56 45.6728 200.345 100.901 200.345Z" fill="url(#paint0_linear_1_637)"/><path d="M133.265 94.414C151.196 101.962 160.017 120.031 154.166 138.731C150.18 151.494 138.822 161.804 126.651 166.464C111.306 172.359 90.6994 171.98 75.5649 165.7C44.8684 152.979 37.7076 117.655 40.7555 88.2673C42.8786 67.6965 51.4408 47.6444 70.3449 37.3344C84.5896 29.5336 102.821 28.4262 118.418 31.6923C134.611 35.0846 147.755 44.6656 155.722 59.1738C158.181 63.6244 160.171 68.5446 161.657 74.0184C161.699 74.2287 161.615 74.446 161.404 74.488L150.131 77.4598C149.92 77.5018 149.703 77.3756 149.661 77.2074C147.965 70.7593 145.296 65.0332 141.603 60.0359C130.07 44.3432 108.917 40.1449 90.6855 43.411C69.1888 47.2729 57.3194 62.3698 53.844 83.1018C51.0063 99.9369 51.8962 119.442 59.6526 134.967C66.1829 148.031 78.0103 155.362 92.255 157.402C99.9273 158.46 107.432 158.334 114.768 156.974C125.285 155.026 136.559 148.066 141.134 138.1C144.105 131.652 144.399 123.472 141.134 117.066C139.27 113.422 136.467 110.492 132.782 108.291C132.614 108.165 132.355 108.249 132.27 108.418C132.228 108.46 132.228 108.502 132.228 108.544C131.801 111.684 131.086 114.775 130.021 117.788C128.494 122.071 126.294 125.764 123.365 128.771C113.528 138.906 96.4031 139.796 84.8279 132.5C75.5861 126.647 72.1107 114.69 76.5179 104.85C81.0933 94.6733 92.29 90.2648 102.926 89.7532C108.945 89.4588 114.501 89.7111 119.63 90.433C119.841 90.4751 120.009 90.3069 120.058 90.0966V89.9705C119.588 87.6365 119.042 85.7301 118.362 84.2443C114.803 76.4014 106.787 74.3198 98.7783 75.3361C93.6494 75.9739 89.6204 78.3919 86.6075 82.5481C86.4814 82.7163 86.2712 82.7584 86.096 82.6323L76.5179 76.1001C76.3497 75.9739 76.3078 75.7636 76.4339 75.5464C81.5628 68.3343 88.5134 64.136 97.3348 62.9936C104.629 62.0194 112.806 63.1618 119.168 67.0237C128.704 72.876 132.095 83.3962 132.943 94.0355C133.027 94.2458 133.111 94.372 133.237 94.414H133.265ZM87.5184 111.039C85.6126 117.445 90.0199 122.491 95.9966 124.012C104.391 126.136 113.717 124.264 117.703 115.658C119.273 112.265 120.205 108.277 120.499 103.743C120.499 103.532 120.373 103.364 120.205 103.364C113.976 102.138 107.572 101.878 101.041 102.516C95.7443 103.07 89.172 105.488 87.5184 111.039Z" fill="white"/><defs><linearGradient id="paint0_linear_1_637" x1="0.901245" y1="100.315" x2="200.901" y2="100.315" gradientUnits="userSpaceOnUse"><stop stop-color="#FAAD4F"/><stop offset="0.35" stop-color="#DD2A7B"/><stop offset="0.62" stop-color="#9537B0"/><stop offset="1" stop-color="#515BD4"/></linearGradient></defs></svg> 